<svg id="ic_fssp" xmlns="http://www.w3.org/2000/svg" width="44" height="44" viewBox="0 0 44 44">
  <rect id="Rectangle_33" data-name="Rectangle 33" width="44" height="44" fill="none"/>
  <path id="Path_32" data-name="Path 32" d="M521.148,312.149a1.2,1.2,0,0,1,0,2.4h-18.4a1.2,1.2,0,0,1,0-2.4h1.2a2.418,2.418,0,0,1,.743-1.772,2.449,2.449,0,0,1,1.714-.685h11.028a2.349,2.349,0,0,1,2.458,2.457Zm-4.4-31.314a1.071,1.071,0,0,1,1.714-.115l10.286,8.629a1.071,1.071,0,0,1,.114,1.714l-.857.971a1.053,1.053,0,0,1-1.714.172l-1.829-1.543c-.342-.266-.629-.247-.857.057a.536.536,0,0,0,.057.857,1.075,1.075,0,0,1,.114,1.715l-2.343,2.8,5.372,4.514a2.487,2.487,0,0,1,3.486-.286l9.657,8.343a1.1,1.1,0,0,1,.172,1.714l-3.143,3.772a1.1,1.1,0,0,1-1.715.171l-9.714-8.4a2.6,2.6,0,0,1-.857-1.657,2.426,2.426,0,0,1,.571-1.771l-5.371-4.515-2.343,2.8a1.074,1.074,0,0,1-1.715.114.558.558,0,0,0-.856.114.536.536,0,0,0,.057.857l1.885,1.543a1.074,1.074,0,0,1,.115,1.714l-.857,1.029a1.1,1.1,0,0,1-1.715.171l-10.228-8.628a1.112,1.112,0,0,1-.172-1.772l.857-.971a1.1,1.1,0,0,1,1.715-.171l1.828,1.6a.518.518,0,0,0,.857-.114.537.537,0,0,0-.057-.857,1.069,1.069,0,0,1-.114-1.714l6.228-7.486a1.076,1.076,0,0,1,1.715-.115.518.518,0,0,0,.857-.114.538.538,0,0,0-.057-.857l-1.886-1.543a1.073,1.073,0,0,1-.114-1.714Z" transform="translate(-498.548 -275.347)" fill="#004685"/>
</svg>
