<svg id="ic_gibdd1" xmlns="http://www.w3.org/2000/svg" width="44" height="44" viewBox="0 0 44 44">
  <rect id="Rectangle_33" data-name="Rectangle 33" width="44" height="44" fill="none"/>
  <path id="Path_25" data-name="Path 25" d="M425.986,313.252c3.9-.066,7.6.429,8.833.962-1.22.278-4.818-.233-8.833-.962m-7.569-19.6,5.049,5.049-4.039,4.038-5.048-5.048Zm8.771-8.771,5.049,5.048-4.039,4.039-5.048-5.048Zm-6.347,27.372c-1.936-.393-3.777-.782-5.3-1.105-1.806-.382-3.324-.7-4.578-.953l3.209-3.209c.075,0,.149.022.224.022a4.268,4.268,0,0,0,3.029-1.255l1.34-1.34,1.169-1.169,4.038-4.039,4.733-4.732,4.039-4.039,1.036-1.037,1.967-1.966a4.284,4.284,0,0,0-6.058-6.058l-1.967,1.966-1.036,1.037-4.039,4.039-4.733,4.732-4.038,4.039-1.169,1.169-1.34,1.34a4.257,4.257,0,0,0-1.234,3.253l-5.294,5.294a2.856,2.856,0,1,0,4.039,4.039l.869-.87c1.529.3,3.481.707,5.5,1.134q1.189.252,2.3.485c-7.16,2-10.508,1.491-11.367.846-.233-.174-.233-.31-.233-.368a.714.714,0,0,0-1.428,0,1.841,1.841,0,0,0,.8,1.512,6.544,6.544,0,0,0,3.795.856,36.27,36.27,0,0,0,9.651-1.712,18.721,18.721,0,0,1,2.029-.466c9.153,1.851,13.889,2.483,15.174,1.546a1.146,1.146,0,0,0,.477-1.474c-.883-1.788-9.582-2.483-15.609-1.517" transform="translate(-398 -275.12)" fill="#004685"/>
</svg>
