<svg id="ic_nalog" xmlns="http://www.w3.org/2000/svg" width="44" height="44" viewBox="0 0 44 44">
  <rect id="Rectangle_33" data-name="Rectangle 33" width="44" height="44" fill="none"/>
  <path id="Path_33" data-name="Path 33" d="M579.006,301.029l-1.086-.515a14.914,14.914,0,0,0-14.057-19.542,14.926,14.926,0,0,0-14.857,14.857,14.453,14.453,0,0,0,3.771,9.942,14.3,14.3,0,0,0,9.372,4.858v1.142a15.949,15.949,0,1,1,17.714-15.942A15.986,15.986,0,0,1,579.006,301.029Zm-24.857-14.858a13.159,13.159,0,0,0-4,9.658,13.374,13.374,0,0,0,3.429,9.143,13.2,13.2,0,0,0,8.571,4.514v-7.029h-2.114c-.267,0-.4-.151-.4-.457v-.8a.411.411,0,0,1,.228-.4q.515-.171,1.029-.4a4.349,4.349,0,0,1,.743-.172v-9.142h-.057q-.63.057-1.258.057h-.571a.366.366,0,0,1-.4-.343l-.114-.743a.449.449,0,0,1,.343-.457,17.107,17.107,0,0,0,2.171-.686,11.521,11.521,0,0,0,2.171-1.085.508.508,0,0,1,.229-.058h1.257a.354.354,0,0,1,.4.4v6.458L576.892,300a12.771,12.771,0,0,0,.686-4.171,13.068,13.068,0,0,0-4.058-9.658c-2.666-2.7-4.814-4.057-9.657-4.057S556.441,284.062,554.149,286.171Zm10.8,29.429V297.314l16.343,7.943a.462.462,0,0,0,.743-.228.521.521,0,0,0-.229-.8l-17.2-8.285a.428.428,0,0,0-.514,0,.516.516,0,0,0-.286.457v19.2a.571.571,0,0,0,1.143,0Zm1.143-2.743a14.525,14.525,0,0,0,7.486-2.285,14.321,14.321,0,0,0,4.971-5.372l-1.029-.514a12.447,12.447,0,0,1-11.428,7.028Z" transform="translate(-542.863 -275.829)" fill="#004685"/>
</svg>
