<svg id="ic_rr" xmlns="http://www.w3.org/2000/svg" width="44" height="44" viewBox="0 0 44 44">
  <rect id="Rectangle_33" data-name="Rectangle 33" width="44" height="44" fill="none"/>
  <path id="Path_34" data-name="Path 34" d="M624.707,292.543a.547.547,0,0,1,.171.629l-9.257,22.914a.487.487,0,0,1-.515.342.506.506,0,0,1-.228-.057l-12.171-4.457a.51.51,0,0,1-.343-.285.6.6,0,0,1,0-.515l1.085-2.171-11.028-5.257a.508.508,0,0,1-.286-.343.407.407,0,0,1,.058-.457l3.428-6.057,9.6-16.972a.613.613,0,0,1,.572-.285l12.171,1.257h.057a.162.162,0,0,0,.114.057h.058v.057h.057V281h.057l.057.057a.05.05,0,0,0,.057.057h0v.115l.057.057v.228a.051.051,0,0,1-.057.058v.057l-1.543,3.257Zm-26.629,5.885-4.514,4.515.857.4,4.571-4.571Zm-3.2,2,2.286-2.342-.8-.286Zm.343,3.315.857.4,4.743-4.743-.914-.343Zm1.657.8.857.4,4.857-4.914-.914-.286Zm1.657.8.857.4,5.029-5.028-.915-.344Zm1.658.8.856.4,5.2-5.2-.915-.343Zm3.256-20.8-1.656,2.914,7.142-7.2-1.085-.114Zm-1.6,21.543.857.4,5.314-5.315-.915-.342Zm9.314-25.6-1.086-.114-7.714,7.714.971.286Zm-7.658,26.4.858.4,5.486-5.486-.915-.286Zm8.172-4.4-.914-.343-6,6-1.086,2.114.115.057Zm1.714-21.772-1.085-.114-8.057,8.057.971.229Zm.057,22.4-.914-.342-7.828,7.885.914.343Zm-6.685-23.085-.743-.057-1.029,1.771Zm8.857.914-1.086-.114-8.342,8.342.971.286Zm-.343,22.8-.914-.343-7.886,7.886.914.342Zm1.486-22.686-8.686,8.629.971.286,7.144-7.143.856-1.715Zm.285,23.315-.914-.286-7.828,7.886.857.285Zm-1.943-19.2-5.085,5.086.971.229,2.972-2.972Zm3.429,19.772-.571-.229-7.886,7.886.914.343,7.258-7.315Zm5.143-12.686-7.314-7.086-2.915,6.057,1.657.458a.513.513,0,0,1,.343.286.606.606,0,0,1,0,.514l-4.171,8.628,7.714,2.743Zm-10.914,21.314,3.828-3.828.857-2.057-5.6,5.6Zm.114-23.714-.971.915.457.114Zm2.915,21.943-2.115,2.115,1.086.4Z" transform="translate(-586.089 -275.572)" fill="#004685"/>
</svg>
