<svg id="logo_partner6" xmlns="http://www.w3.org/2000/svg" xmlns:xlink="http://www.w3.org/1999/xlink" width="114" height="100" viewBox="0 0 114 100">
  <defs>
    <clipPath id="clip-path">
      <rect id="Rectangle_42" data-name="Rectangle 42" width="114" height="100" fill="none"/>
    </clipPath>
  </defs>
  <g id="Mask_Group_6" data-name="Mask Group 6" clip-path="url(#clip-path)">
    <g id="Group_50" data-name="Group 50" transform="translate(4 13.6)" opacity="0.35">
      <g id="Group_41" data-name="Group 41" transform="translate(0 8.487)">
        <g id="Group_41-2" data-name="Group 41" transform="translate(1.237 1.368)">
          <path id="Path_72" data-name="Path 72" d="M506.369,511.714l2.457-8.866-7.379-5.579-.583-1.712,97.853-43.932.615,1.809-2.457,8.866,7.379,5.579.584,1.712-97.853,43.932Z" transform="translate(-500.864 -451.625)" fill="#fff"/>
        </g>
        <g id="Group_42" data-name="Group 42" transform="translate(0 0)">
          <path id="Path_73" data-name="Path 73" d="M598.934,451.672l.39,1.155-2.535,9.239,7.615,5.814.39,1.155-98.028,44.439-.39-1.155,2.535-9.239-7.615-5.815-.39-1.155,98.027-44.439m.615-1.415-1.042.472L500.48,495.168l-.853.387.3.887.39,1.155.1.3.251.192,7.06,5.391-2.351,8.566-.084.305.1.3.39,1.155.366,1.084,1.042-.472,98.027-44.439.853-.387-.3-.887-.39-1.155-.1-.3-.251-.192-7.061-5.391,2.351-8.566.083-.305-.1-.3-.39-1.155-.366-1.084Z" transform="translate(-499.627 -450.257)"/>
        </g>
      </g>
      <g id="Group_42-2" data-name="Group 42" transform="translate(18.805)">
        <g id="Group_44" data-name="Group 44" transform="translate(3 3)">
          <path id="Path_74" data-name="Path 74" d="M538.97,488.783V436.856H601.3v51.927l-31.167,15.292Z" transform="translate(-538.97 -436.856)"/>
        </g>
        <g id="Group_46" data-name="Group 46" transform="translate(0 0)">
          <g id="Group_45" data-name="Group 45">
            <path id="Path_75" data-name="Path 75" d="M601.2,436.961v51.771l-31.062,15.226-31.062-15.226V436.961H601.2m3.1-3.1H535.97v56.811l1.738.852,31.062,15.227,1.367.67,1.367-.67,31.062-15.227,1.738-.852V433.856Z" transform="translate(-535.97 -433.856)"/>
          </g>
        </g>
      </g>
      <g id="Group_43" data-name="Group 43" transform="translate(19.84 1.035)">
        <g id="Group_48" data-name="Group 48" transform="translate(2 2)">
          <path id="Path_76" data-name="Path 76" d="M539.97,489.731V437.856h62.264v51.875L571.1,505Z" transform="translate(-539.97 -437.856)"/>
        </g>
        <g id="Group_49" data-name="Group 49" transform="translate(0 0)">
          <path id="Path_77" data-name="Path 77" d="M602.164,437.926V489.7L571.1,504.923,540.04,489.7V437.926h62.124m2.07-2.07H537.97v55.13l1.159.568,31.062,15.227.911.447.911-.447,31.062-15.227,1.159-.568v-55.13Z" transform="translate(-537.97 -435.856)" fill="#fff"/>
        </g>
      </g>
      <g id="Group_44-2" data-name="Group 44" transform="translate(17.269 5.463)">
        <path id="Path_78" data-name="Path 78" d="M534,495.532l69.407-30.877V445.963L534,476.84Z" transform="translate(-533 -444.414)" fill="#fff"/>
        <path id="Path_79" data-name="Path 79" d="M533,497.082V476.69l71.407-32.276v20.392Zm1.035-19.724v18.12l69.337-31.34v-18.12Z" transform="translate(-533 -444.414)"/>
      </g>
    </g>
  </g>
</svg>
