<svg id="logo_partner1" xmlns="http://www.w3.org/2000/svg" xmlns:xlink="http://www.w3.org/1999/xlink" width="110" height="100" viewBox="0 0 110 100">
  <defs>
    <clipPath id="clip-path">
      <rect id="Rectangle_38" data-name="Rectangle 38" width="110" height="100" fill="none"/>
    </clipPath>
  </defs>
  <g id="Mask_Group_3" data-name="Mask Group 3" clip-path="url(#clip-path)">
    <g id="Group_10" data-name="Group 10" transform="translate(-154.873 -133.275)" opacity="0.35">
      <path id="Path_35" data-name="Path 35" d="M216.549,140.275l1.138,26.431,4.805-26.016-2.552,26.332,8.379-25.094-6.192,25.721,11.79-23.683-9.711,24.609,14.971-21.812-13.041,23.018L244,150.266l-16.118,20.979,20.4-16.84L229.4,172.935,251.95,159.1l-21.276,15.723,24.255-10.564-23.257,12.609,25.489-7.086-24.786,9.25,26.227-3.469-25.832,5.71,26.455.215-26.375,2.06,26.167,3.894-26.405-1.631,25.371,7.5-25.921-5.29,24.08,10.956-24.933-8.846,22.321,14.2L230.071,192.1,250.2,209.267,228.67,193.891l17.542,19.8-19.179-18.223,14.615,22.052L225.192,196.81l11.4,23.871-13.413-22.8,7.971,25.226-10.109-24.448,4.382,26.09-6.608-25.617.709,26.446-2.979-26.287-2.979,26.287.709-26.446-6.608,25.617,4.382-26.09L201.944,223.1l7.971-25.226-13.413,22.8,11.4-23.871-16.456,20.714,14.615-22.052-19.179,18.223,17.542-19.8L182.9,209.267,203.026,192.1l-23.459,12.23,22.321-14.2-24.933,8.846,24.08-10.956-25.921,5.29,25.371-7.5-26.405,1.631,26.167-3.894-26.375-2.06,26.455-.215-25.832-5.71,26.227,3.469-24.786-9.25,25.489,7.086-23.257-12.609,24.255,10.564L181.147,159.1,203.7,172.935,184.815,154.4l20.4,16.84L189.1,150.266l17.861,19.516L193.92,146.764l14.971,21.812-9.711-24.609,11.79,23.683-6.192-25.721,8.379,25.094-2.552-26.332,4.805,26.016Z" transform="translate(-6.813)"/>
      <g id="Group_8" data-name="Group 8" transform="translate(155.873 150.987)">
        <path id="Path_36" data-name="Path 36" d="M196.794,220.931l-37.922-17.237V177.748l37.922-17.237h28.154l37.922,17.237v25.946l-37.922,17.237Z" transform="translate(-157.008 -158.647)"/>
        <path id="Path_37" data-name="Path 37" d="M223.409,161.24l36.461,16.573v23.545l-36.461,16.573H196.063L159.6,201.358V177.813l36.461-16.573h27.346m.808-3.729H195.255l-.736.334-36.461,16.573-2.186.993v28.347l2.186.994,36.461,16.573.736.334h28.961l.735-.334,36.461-16.573,2.186-.994V175.412l-2.186-.993-36.461-16.573-.735-.334Z" transform="translate(-155.873 -157.511)"/>
      </g>
      <g id="Group_9" data-name="Group 9" transform="translate(157.116 152.23)">
        <path id="Path_38" data-name="Path 38" d="M197.307,220.688l-37.435-17.016V178.527l37.435-17.016h27.884l37.435,17.016v25.145l-37.435,17.016Z" transform="translate(-158.63 -160.268)"/>
        <path id="Path_39" data-name="Path 39" d="M224.166,162l36.461,16.573v23.545l-36.461,16.573H196.82l-36.461-16.573V178.57L196.82,162h27.346m.539-2.486H196.281l-.49.223L159.33,176.307l-1.457.663v26.747l1.457.662,36.461,16.573.49.223H224.7l.49-.223,36.461-16.573,1.457-.662V176.969l-1.457-.663-36.461-16.573-.49-.223Z" transform="translate(-157.873 -159.511)" fill="#fff"/>
      </g>
    </g>
  </g>
</svg>
