<svg xmlns="http://www.w3.org/2000/svg" xmlns:xlink="http://www.w3.org/1999/xlink" width="294.814" height="44" viewBox="0 0 294.814 44">
  <defs>
    <clipPath id="clip-path">
      <rect id="Rectangle_3" data-name="Rectangle 3" width="44" height="44" transform="translate(475 11)" fill="#fff" stroke="#707070" stroke-width="1"/>
    </clipPath>
  </defs>
  <g id="logo_site-logo" transform="translate(-475 -11)">
    <g id="logo_site-logo_znak" transform="translate(475 11)">
      <g id="logo_site-logo_znak-2" data-name="logo_site-logo_znak" transform="translate(-475 -11)" clip-path="url(#clip-path)">
        <g id="Group_1" data-name="Group 1" transform="translate(160.526 329.127) rotate(-45)">
          <rect id="Rectangle_2" data-name="Rectangle 2" width="27.139" height="27.139" transform="matrix(0.94, -0.342, 0.342, 0.94, 432.48, 17.476)" fill="#569ddc"/>
          <rect id="Rectangle_1" data-name="Rectangle 1" width="27.139" height="27.139" transform="translate(432.612 17.344)" fill="#004685"/>
          <circle id="Ellipse_1" data-name="Ellipse 1" cx="2.326" cy="2.326" r="2.326" transform="translate(451.492 28.979)" fill="#fff"/>
        </g>
      </g>
    </g>
    <path id="Path_81" data-name="Path 81" d="M12.547,34H6.375V16.2H.8V11.156H18.109V16.2H12.547Zm30.966,0h-6.2V24.688H30.138V34h-6.2V11.156h6.2v8.469H37.31V11.156h6.2Zm7.5,0V11.156h6.2V34Zm28.638-6.937a6.739,6.739,0,0,1-1.078,3.773A7.06,7.06,0,0,1,75.461,33.4a11.526,11.526,0,0,1-4.766.914,19.28,19.28,0,0,1-3.828-.32,14.212,14.212,0,0,1-3.219-1.117v-5.5a18.381,18.381,0,0,0,3.672,1.414,13.682,13.682,0,0,0,3.5.508,3.4,3.4,0,0,0,2.016-.477,1.465,1.465,0,0,0,.641-1.227,1.35,1.35,0,0,0-.258-.82,3,3,0,0,0-.828-.711q-.57-.359-3.039-1.469A14.58,14.58,0,0,1,66,22.625a6.044,6.044,0,0,1-1.656-2.187,7.261,7.261,0,0,1-.539-2.922,5.856,5.856,0,0,1,2.3-4.922,10.125,10.125,0,0,1,6.313-1.766,17.714,17.714,0,0,1,7.234,1.641l-1.891,4.766a13.7,13.7,0,0,0-5.531-1.469,2.882,2.882,0,0,0-1.75.422,1.276,1.276,0,0,0-.547,1.047,1.512,1.512,0,0,0,.7,1.2A26.507,26.507,0,0,0,74.4,20.375a10.437,10.437,0,0,1,4.1,2.852A6.193,6.193,0,0,1,79.649,27.063Zm19.81.734a5.749,5.749,0,0,1-2.2,4.781,9.588,9.588,0,0,1-6.078,1.734,14.5,14.5,0,0,1-6.344-1.2V29.578a17.242,17.242,0,0,0,3.32,1.156,14.078,14.078,0,0,0,3.273.422,5.207,5.207,0,0,0,3.273-.844,2.751,2.751,0,0,0,1.055-2.266,2.839,2.839,0,0,0-.969-2.172,14.584,14.584,0,0,0-4-2.109,10.582,10.582,0,0,1-4.406-2.891A6.116,6.116,0,0,1,85.1,16.969a5.471,5.471,0,0,1,2.031-4.5,8.426,8.426,0,0,1,5.453-1.641,16.022,16.022,0,0,1,6.531,1.438l-1.187,3.047a14.269,14.269,0,0,0-5.437-1.281,4.173,4.173,0,0,0-2.75.789,2.592,2.592,0,0,0-.937,2.086,2.937,2.937,0,0,0,.375,1.523,3.83,3.83,0,0,0,1.234,1.2,20.879,20.879,0,0,0,3.094,1.484,16.928,16.928,0,0,1,3.688,1.953,5.745,5.745,0,0,1,1.719,2.047A6.157,6.157,0,0,1,99.459,27.8Zm6.982,6.2V11.156h3.734V34Zm20.216,0h-3.734V14.359H116.2v-3.2h17.172v3.2h-6.719Zm25.7,0H139.436V11.156h12.922v3.156H143.17v6.219h8.609v3.125H143.17v7.172h9.188Zm13.669,0h-1.609V12.656H157v-1.5h16.453v1.5h-7.422ZM179.4,34V11.156h1.594V34Zm16.576,0h-1.609V12.656h-7.422v-1.5H203.4v1.5h-7.422Zm13.372,0V11.156h1.594V32.5h10.891V34Zm31.466,0H228.329V11.156h12.484v1.469H229.923v8.641H240.2v1.469H229.923v9.8h10.891Z" transform="translate(529 11)" fill="#004685"/>
  </g>
</svg>
