<?xml version="1.0" encoding="UTF-8"?>
<svg xmlns="http://www.w3.org/2000/svg" xmlns:xlink="http://www.w3.org/1999/xlink" viewBox="0 0 48 48" width="48px" height="48px">
<g id="surface68823928">
<path style=" stroke:none;fill-rule:nonzero;fill:rgb(38.82353%,34.509805%,32.941177%);fill-opacity:1;" d="M 45.761719 35.203125 C 43.964844 31.96875 39.335938 28.082031 37.425781 26.390625 C 36.902344 25.929688 36.847656 25.128906 37.324219 24.613281 C 40.96875 20.695312 43.886719 16.191406 44.890625 13.472656 C 45.335938 12.269531 44.417969 11 43.125 11 L 39.371094 11 C 38.136719 11 37.410156 11.445312 37.066406 12.152344 C 34.035156 18.363281 31.433594 21.050781 29.613281 22.621094 C 28.597656 23.5 27.007812 22.773438 27.007812 21.433594 C 27.007812 18.851562 27.007812 15.519531 27.007812 13.152344 C 27.007812 12.007812 26.070312 11.078125 24.910156 11.078125 L 18.054688 11 C 17.191406 11 16.699219 11.976562 17.21875 12.660156 L 18.351562 14.285156 C 18.777344 14.851562 19.007812 15.535156 19.007812 16.238281 L 19 23.554688 C 19 24.828125 17.457031 25.449219 16.539062 24.558594 C 13.441406 21.539062 10.753906 15.378906 9.785156 12.429688 C 9.503906 11.578125 8.707031 11.003906 7.800781 11 L 4.101562 10.992188 C 2.714844 10.992188 1.703125 12.304688 2.078125 13.628906 C 5.457031 25.488281 12.386719 36.765625 24.738281 37.988281 C 25.957031 38.109375 27.007812 37.128906 27.007812 35.917969 L 27.007812 32.070312 C 27.007812 30.96875 27.871094 30.019531 28.984375 29.992188 C 29.023438 29.992188 29.0625 29.992188 29.101562 29.992188 C 32.367188 29.992188 36.027344 34.746094 37.308594 36.96875 C 37.675781 37.609375 38.363281 38 39.105469 38 L 44.078125 38 C 45.53125 38 46.460938 36.460938 45.761719 35.203125 Z M 45.761719 35.203125 "/>
</g>
</svg>
