<svg width="27" height="27" viewBox="0 0 27 27" fill="none" xmlns="http://www.w3.org/2000/svg">
<g id="Add_square_duotone_line">
<path id="Rectangle 1" d="M1.3 12.5C1.3 9.64896 1.3017 7.59115 1.51254 6.02297C1.72028 4.47779 2.11778 3.52831 2.82304 2.82304C3.52831 2.11778 4.47779 1.72028 6.02297 1.51254C7.59115 1.3017 9.64896 1.3 12.5 1.3H14.5C17.351 1.3 19.4088 1.3017 20.977 1.51254C22.5222 1.72028 23.4717 2.11778 24.177 2.82304C24.8822 3.52831 25.2797 4.47779 25.4875 6.02297C25.6983 7.59115 25.7 9.64896 25.7 12.5V14.5C25.7 17.351 25.6983 19.4088 25.4875 20.977C25.2797 22.5222 24.8822 23.4717 24.177 24.177C23.4717 24.8822 22.5222 25.2797 20.977 25.4875C19.4088 25.6983 17.351 25.7 14.5 25.7H12.5C9.64896 25.7 7.59115 25.6983 6.02297 25.4875C4.47779 25.2797 3.52831 24.8822 2.82304 24.177C2.11778 23.4717 1.72028 22.5222 1.51254 20.977C1.3017 19.4088 1.3 17.351 1.3 14.5V12.5Z" stroke="#A4A4A4" stroke-width="1.6"/>
<path id="Vector 52" d="M13.5 7.5L13.5 18.5" stroke="#A4A4A4" stroke-width="1.6275" stroke-linecap="round" stroke-linejoin="round"/>
<path id="Vector 53" d="M19.5 13.5L8.5 13.5" stroke="#A4A4A4" stroke-width="1.6275" stroke-linecap="round" stroke-linejoin="round"/>
</g>
</svg>
