<svg width="28" height="27" viewBox="0 0 28 27" fill="none" xmlns="http://www.w3.org/2000/svg">
<g id="Bell_light">
<path id="Rectangle 1" d="M5.63089 8.94948C6.12637 4.70253 9.72425 1.5 14 1.5V1.5C18.2758 1.5 21.8736 4.70253 22.3691 8.94947L22.6954 11.7464C22.8959 13.4651 23.4787 15.117 24.401 16.581L25.2515 17.931C25.8752 18.9209 26.187 19.4159 26.2116 19.8208C26.2487 20.4323 25.9296 21.0104 25.3925 21.3049C25.0368 21.5 24.4518 21.5 23.2818 21.5H4.71823C3.5482 21.5 2.96318 21.5 2.6075 21.3049C2.07035 21.0104 1.75134 20.4323 1.78842 19.8208C1.81297 19.4159 2.1248 18.9209 2.74848 17.931L3.59895 16.581C4.52127 15.117 5.10407 13.4651 5.30458 11.7464L5.63089 8.94948Z" stroke="#A4A4A4" stroke-width="1.6"/>
<path id="Ellipse 45" d="M9.65333 21.7941C9.90972 22.8573 10.4747 23.7967 11.2606 24.4668C12.0465 25.1368 13.0094 25.5 14 25.5C14.9906 25.5 15.9535 25.1368 16.7394 24.4668C17.5253 23.7967 18.0903 22.8573 18.3467 21.7941" stroke="#A4A4A4" stroke-width="1.6" stroke-linecap="round"/>
</g>
</svg>
