<svg width="30" height="30" viewBox="0 0 30 30" fill="none" xmlns="http://www.w3.org/2000/svg">
<g id="calendar">
<path id="Vector" d="M10.5 7.5C9.95333 7.5 9.5 7.12222 9.5 6.66667V3.33333C9.5 2.87778 9.95333 2.5 10.5 2.5C11.0467 2.5 11.5 2.87778 11.5 3.33333V6.66667C11.5 7.12222 11.0467 7.5 10.5 7.5Z" fill="#A4A4A4"/>
<path id="Vector_2" d="M19.5 7.5C18.9533 7.5 18.5 7.12222 18.5 6.66667V3.33333C18.5 2.87778 18.9533 2.5 19.5 2.5C20.0467 2.5 20.5 2.87778 20.5 3.33333V6.66667C20.5 7.12222 20.0467 7.5 19.5 7.5Z" fill="#A4A4A4"/>
<path id="Vector_3" d="M10.5 17.5C10.37 17.5 10.24 17.4699 10.12 17.4198C9.99 17.3697 9.89 17.2994 9.79 17.2092C9.61 17.0187 9.5 16.768 9.5 16.4972C9.5 16.3669 9.53 16.2365 9.58 16.1162C9.63 15.9958 9.7 15.8855 9.79 15.7853C9.89 15.695 9.99 15.6248 10.12 15.5746C10.48 15.4242 10.93 15.5045 11.21 15.7853C11.39 15.9758 11.5 16.2365 11.5 16.4972C11.5 16.5574 11.49 16.6276 11.48 16.6978C11.47 16.758 11.45 16.8181 11.42 16.8783C11.4 16.9384 11.37 16.9986 11.33 17.0588C11.3 17.1089 11.25 17.159 11.21 17.2092C11.02 17.3897 10.76 17.5 10.5 17.5Z" fill="#A4A4A4"/>
<path id="Vector_4" d="M14.5 17.5C14.37 17.5 14.24 17.47 14.12 17.42C13.99 17.3699 13.89 17.2999 13.79 17.2098C13.61 17.0197 13.5 16.7696 13.5 16.4994C13.5 16.3694 13.53 16.2393 13.58 16.1192C13.63 15.9992 13.7 15.8891 13.79 15.7891C13.89 15.699 13.99 15.629 14.12 15.5789C14.48 15.4188 14.93 15.5089 15.21 15.7891C15.39 15.9792 15.5 16.2393 15.5 16.4994C15.5 16.5595 15.49 16.6295 15.48 16.6996C15.47 16.7596 15.45 16.8196 15.42 16.8797C15.4 16.9397 15.37 16.9997 15.33 17.0598C15.3 17.1098 15.25 17.1598 15.21 17.2098C15.02 17.3899 14.76 17.5 14.5 17.5Z" fill="#A4A4A4"/>
<path id="Vector_5" d="M19.5 17.5C19.37 17.5 19.24 17.47 19.12 17.42C18.99 17.3699 18.89 17.2999 18.79 17.2098C18.75 17.1598 18.71 17.1098 18.67 17.0598C18.63 16.9997 18.6 16.9397 18.58 16.8797C18.55 16.8196 18.53 16.7596 18.52 16.6996C18.51 16.6295 18.5 16.5595 18.5 16.4994C18.5 16.2393 18.61 15.9792 18.79 15.7891C18.89 15.699 18.99 15.629 19.12 15.5789C19.49 15.4188 19.93 15.5089 20.21 15.7891C20.39 15.9792 20.5 16.2393 20.5 16.4994C20.5 16.5595 20.49 16.6295 20.48 16.6996C20.47 16.7596 20.45 16.8196 20.42 16.8797C20.4 16.9397 20.37 16.9997 20.33 17.0598C20.3 17.1098 20.25 17.1598 20.21 17.2098C20.02 17.3899 19.76 17.5 19.5 17.5Z" fill="#A4A4A4"/>
<path id="Vector_6" d="M10.5 21.5C10.37 21.5 10.24 21.4698 10.12 21.4195C10 21.3692 9.89 21.2987 9.79 21.2082C9.61 21.017 9.5 20.7553 9.5 20.4937C9.5 20.3629 9.53 20.2321 9.58 20.1113C9.63 19.9805 9.7 19.8698 9.79 19.7792C10.16 19.4069 10.84 19.4069 11.21 19.7792C11.39 19.9704 11.5 20.2321 11.5 20.4937C11.5 20.7553 11.39 21.017 11.21 21.2082C11.02 21.3893 10.76 21.5 10.5 21.5Z" fill="#A4A4A4"/>
<path id="Vector_7" d="M14.5 21.5C14.24 21.5 13.98 21.3893 13.79 21.2082C13.61 21.017 13.5 20.7553 13.5 20.4937C13.5 20.3629 13.53 20.2321 13.58 20.1113C13.63 19.9805 13.7 19.8698 13.79 19.7792C14.16 19.4069 14.84 19.4069 15.21 19.7792C15.3 19.8698 15.37 19.9805 15.42 20.1113C15.47 20.2321 15.5 20.3629 15.5 20.4937C15.5 20.7553 15.39 21.017 15.21 21.2082C15.02 21.3893 14.76 21.5 14.5 21.5Z" fill="#A4A4A4"/>
<path id="Vector_8" d="M19.5 21.5C19.24 21.5 18.98 21.39 18.79 21.2101C18.7 21.1202 18.63 21.0102 18.58 20.8803C18.53 20.7603 18.5 20.6304 18.5 20.5004C18.5 20.3705 18.53 20.2406 18.58 20.1206C18.63 19.9907 18.7 19.8807 18.79 19.7908C19.02 19.5609 19.37 19.4509 19.69 19.5209C19.76 19.5309 19.82 19.5509 19.88 19.5808C19.94 19.6008 20 19.6308 20.06 19.6708C20.11 19.7008 20.16 19.7508 20.21 19.7908C20.39 19.9807 20.5 20.2406 20.5 20.5004C20.5 20.7603 20.39 21.0202 20.21 21.2101C20.02 21.39 19.76 21.5 19.5 21.5Z" fill="#A4A4A4"/>
<path id="Vector_9" d="M25.5676 11.5H4.43243C3.9227 11.5 3.5 11.2733 3.5 11C3.5 10.7267 3.9227 10.5 4.43243 10.5H25.5676C26.0773 10.5 26.5 10.7267 26.5 11C26.5 11.2733 26.0773 11.5 25.5676 11.5Z" fill="#A4A4A4"/>
<path id="Vector_10" d="M20.4231 26.7H10.5769C8.47712 26.7 6.93126 26.1132 5.91233 25.1197C4.89624 24.129 4.3 22.6324 4.3 20.6V10.4C4.3 8.36756 4.89624 6.87098 5.91233 5.8803C6.93126 4.88684 8.47712 4.3 10.5769 4.3H20.4231C22.5229 4.3 24.0687 4.88684 25.0877 5.8803C26.1038 6.87098 26.7 8.36756 26.7 10.4V20.6C26.7 22.6324 26.1038 24.129 25.0877 25.1197C24.0687 26.1132 22.5229 26.7 20.4231 26.7Z" stroke="#A4A4A4" stroke-width="1.6"/>
</g>
</svg>
