<svg width="27" height="27" viewBox="0 0 27 27" fill="none" xmlns="http://www.w3.org/2000/svg">
<g id="Icon">
<path id="Icon_2" d="M8.16146 11.5H18.8281M8.16146 16.8333H12.1615M25.5 13.5C25.5 20.1274 20.1274 25.5 13.5 25.5C11.667 25.5 6.8406 25.5 3.89764 25.5C3.08313 25.5 2.67588 25.5 2.43207 25.3469C2.20722 25.2058 2.06703 25.0161 1.99808 24.7597C1.92331 24.4817 2.05033 24.068 2.30436 23.2405C2.77964 21.6924 3.20705 19.7581 2.74788 18.8344C1.94914 17.2275 1.5 15.4162 1.5 13.5C1.5 6.87258 6.87258 1.5 13.5 1.5C20.1274 1.5 25.5 6.87258 25.5 13.5Z" stroke="#A4A4A4" stroke-width="1.6" stroke-linecap="round" stroke-linejoin="round"/>
</g>
</svg>
