<svg width="22" height="28" viewBox="0 0 22 28" fill="none" xmlns="http://www.w3.org/2000/svg">
<g id="File_dock_light">
<path id="Rectangle 4152" d="M1.25 3.65C1.25 2.80992 1.25 2.38988 1.41349 2.06901C1.5573 1.78677 1.78677 1.5573 2.06901 1.41349C2.38988 1.25 2.80992 1.25 3.65 1.25H12.2559C12.6228 1.25 12.8062 1.25 12.9788 1.29145C13.1319 1.32819 13.2782 1.3888 13.4124 1.47104C13.5638 1.5638 13.6935 1.69352 13.9529 1.95294L20.0471 8.04706C20.3065 8.30648 20.4362 8.4362 20.529 8.58757C20.6112 8.72178 20.6718 8.8681 20.7086 9.02115C20.75 9.19378 20.75 9.37723 20.75 9.74411V24.35C20.75 25.1901 20.75 25.6101 20.5865 25.931C20.4427 26.2132 20.2132 26.4427 19.931 26.5865C19.6101 26.75 19.1901 26.75 18.35 26.75H3.65C2.80992 26.75 2.38988 26.75 2.06901 26.5865C1.78677 26.4427 1.5573 26.2132 1.41349 25.931C1.25 25.6101 1.25 25.1901 1.25 24.35V3.65Z" fill="#4B79E0" stroke="#4B79E0" stroke-width="1.6"/>
<path id="Vector 317" d="M11.75 1.25V7.85C11.75 8.69008 11.75 9.11012 11.9135 9.43099C12.0573 9.71323 12.2868 9.9427 12.569 10.0865C12.8899 10.25 13.3099 10.25 14.15 10.25H20.75" stroke="#F0F5FF" stroke-width="1.6"/>
<path id="Vector 55" d="M5.75 14.75L16.25 14.75" stroke="#F0F5FF" stroke-width="1.6" stroke-linecap="round"/>
<path id="Vector 58" d="M5.75 19.25L11.75 19.25" stroke="#F0F5FF" stroke-width="1.6" stroke-linecap="round"/>
</g>
</svg>
