<svg width="31" height="31" viewBox="0 0 31 31" fill="none" xmlns="http://www.w3.org/2000/svg">
<g id="filter-list">
<path id="Icon" d="M27.125 7.75H24.5417M27.125 15.5H20.6667M27.125 23.25H20.6667M14.6612 16.2256L18.9221 10.8994C19.09 10.6896 19.1739 10.5847 19.2336 10.4679C19.2865 10.3642 19.3252 10.2539 19.3486 10.1399C19.375 10.0114 19.375 9.87708 19.375 9.60839V7.23333C19.375 6.50993 19.375 6.14823 19.2342 5.87193C19.1104 5.62889 18.9128 5.43129 18.6697 5.30745C18.3934 5.16667 18.0317 5.16667 17.3083 5.16667H5.94167C5.21827 5.16667 4.85656 5.16667 4.58026 5.30745C4.33722 5.43129 4.13962 5.62889 4.01578 5.87193C3.875 6.14823 3.875 6.50993 3.875 7.23333V9.60839C3.875 9.87708 3.875 10.0114 3.90137 10.1399C3.92477 10.2539 3.96347 10.3642 4.01642 10.4679C4.0761 10.5847 4.16002 10.6896 4.32787 10.8994L8.5888 16.2256C8.75664 16.4354 8.84057 16.5403 8.90025 16.6571C8.9532 16.7608 8.9919 16.8711 9.01529 16.9851C9.04167 17.1136 9.04167 17.2479 9.04167 17.5166V21.8333C9.04167 23.5787 9.04167 24.4514 9.59445 24.7278C10.1472 25.0042 10.8454 24.4805 12.2417 23.4333L13.4083 22.5583C13.8009 22.2639 13.9972 22.1167 14.1028 21.9055C14.2083 21.6944 14.2083 21.449 14.2083 20.9583V17.5166C14.2083 17.2479 14.2083 17.1136 14.2347 16.9851C14.2581 16.8711 14.2968 16.7608 14.3497 16.6571C14.4094 16.5403 14.4934 16.4354 14.6612 16.2256Z" stroke="#4B79E0" stroke-width="2" stroke-linecap="round" stroke-linejoin="round"/>
</g>
</svg>
