<svg width="17" height="17" viewBox="0 0 17 17" fill="none" xmlns="http://www.w3.org/2000/svg">
<g id="home 1">
<g id="Union">
<path fill-rule="evenodd" clip-rule="evenodd" d="M8.93489 0.857369C8.67911 0.658424 8.32093 0.658424 8.06515 0.857369L1.69015 5.8157C1.51761 5.9499 1.41669 6.15624 1.41669 6.37483V14.1665C1.41669 14.7301 1.64057 15.2706 2.03908 15.6691C2.4376 16.0676 2.9781 16.2915 3.54169 16.2915H6.30002C6.31207 16.2915 6.32405 16.2912 6.33596 16.2906C6.34889 16.2913 6.36191 16.2917 6.37502 16.2917C6.76622 16.2917 7.08335 15.9745 7.08335 15.5833V10.625C7.08335 9.84259 7.71762 9.20832 8.50002 9.20832C9.28242 9.20832 9.91669 9.84259 9.91669 10.625V15.5833C9.91669 15.9745 10.2338 16.2917 10.625 16.2917C10.7248 16.2917 10.8266 16.2915 10.9264 16.2915L13.4584 16.2915C14.0219 16.2915 14.5624 16.0676 14.961 15.6691C15.3595 15.2706 15.5834 14.7301 15.5834 14.1665V6.37483C15.5834 6.15624 15.4824 5.9499 15.3099 5.8157L8.93489 0.857369ZM11.3334 12.8748C11.3334 13.9794 12.2288 14.8748 13.3334 14.8748H13.4584C13.6462 14.8748 13.8264 14.8002 13.9592 14.6674C14.0921 14.5345 14.1667 14.3544 14.1667 14.1665V7.69943C14.1667 7.08225 13.8817 6.49964 13.3946 6.12073L9.7279 3.26887C9.00568 2.70715 7.99436 2.70715 7.27214 3.26887L3.60547 6.12072C3.1183 6.49964 2.83335 7.08225 2.83335 7.69943V14.1665C2.83335 14.3544 2.90798 14.5345 3.04082 14.6674C3.17366 14.8002 3.35383 14.8748 3.54169 14.8748H3.66669C4.77126 14.8748 5.66669 13.9794 5.66669 12.8748V8.49999C5.66669 8.10879 5.98382 7.79166 6.37502 7.79166H10.625C11.0162 7.79166 11.3334 8.10879 11.3334 8.49999V12.8748Z" fill="#A4A4A4"/>
<path d="M11.3334 12.8748C11.3334 13.9794 12.2288 14.8748 13.3334 14.8748H13.4584C13.6462 14.8748 13.8264 14.8002 13.9592 14.6674C14.0921 14.5345 14.1667 14.3544 14.1667 14.1665V7.69943C14.1667 7.08225 13.8817 6.49964 13.3946 6.12073L9.7279 3.26887C9.00568 2.70715 7.99436 2.70715 7.27214 3.26887L3.60547 6.12072C3.1183 6.49964 2.83335 7.08225 2.83335 7.69943V14.1665C2.83335 14.3544 2.90798 14.5345 3.04082 14.6674C3.17366 14.8002 3.35383 14.8748 3.54169 14.8748H3.66669C4.77126 14.8748 5.66669 13.9794 5.66669 12.8748V8.49999C5.66669 8.10879 5.98382 7.79166 6.37502 7.79166H10.625C11.0162 7.79166 11.3334 8.10879 11.3334 8.49999V12.8748Z" fill="#A4A4A4"/>
</g>
</g>
</svg>
