<svg width="24" height="24" viewBox="0 0 24 24" fill="none" xmlns="http://www.w3.org/2000/svg">
<g id="lightning_fill">
<path id="Vector 29" d="M11.5 13.8001H10.1299C8.72143 13.8001 8.01721 13.8001 7.72228 13.3385C7.42735 12.877 7.72321 12.2379 8.31493 10.9598L11.0463 5.06012C11.4205 4.25187 11.6075 3.84775 11.8038 3.89097C12 3.93419 12 4.37952 12 5.27018V9.70005C12 9.93576 12 10.0536 12.0732 10.1268C12.1464 10.2001 12.2643 10.2001 12.5 10.2001H13.8701C15.2786 10.2001 15.9828 10.2001 16.2777 10.6616C16.5726 11.1231 16.2768 11.7622 15.6851 13.0403L12.9537 18.94C12.5795 19.7482 12.3925 20.1524 12.1962 20.1091C12 20.0659 12 19.6206 12 18.7299V14.3001C12 14.0644 12 13.9465 11.9268 13.8733C11.8536 13.8001 11.7357 13.8001 11.5 13.8001Z" fill="#4B79E0"/>
</g>
</svg>
