<svg width="27" height="27" viewBox="0 0 27 27" fill="none" xmlns="http://www.w3.org/2000/svg">
<g id="Subtract">
<path id="Subtract_2" d="M15.5074 3.29039L16.3036 3.21298V3.21298L15.5074 3.29039ZM18.7397 4.62927L18.2314 4.01149L18.2314 4.0115L18.7397 4.62927ZM18.8719 4.52048L19.3802 5.13825L19.3802 5.13825L18.8719 4.52048ZM18.9657 4.44432L19.457 5.07562L19.4571 5.07561L18.9657 4.44432ZM21.5696 4.5706L21.0194 5.15138L21.0194 5.15138L21.5696 4.5706ZM21.6555 4.65547L21.0898 5.22116L21.0898 5.22116L21.6555 4.65547ZM22.5581 5.55811L21.9924 6.12379V6.12379L22.5581 5.55811ZM22.6663 7.78968L22.0486 7.28139V7.28139L22.6663 7.78968ZM23.7891 10.5003L23.7117 11.2966L23.7117 11.2966L23.7891 10.5003ZM23.9303 10.5141L24.0077 9.71781L24.0077 9.71781L23.9303 10.5141ZM25.5 13.5051L26.3 13.5061V13.5051H25.5ZM25.5 13.5291L26.3 13.5334L26.3 13.53L25.5 13.5291ZM23.7042 15.5079L23.7826 16.3041L23.7859 16.3037L23.7042 15.5079ZM23.6804 15.5102L23.602 14.7141L23.6018 14.7141L23.6804 15.5102ZM23.6375 15.5145L23.559 14.7183L23.5539 14.7189L23.6375 15.5145ZM22.2924 18.762L21.6706 19.2655L21.6739 19.2694L22.2924 18.762ZM22.3197 18.7953L21.7012 19.3027L21.7019 19.3036L22.3197 18.7953ZM22.3966 18.8888L21.7788 19.3971L21.7788 19.3971L22.3966 18.8888ZM22.4785 18.9898L23.1109 18.4997L23.1108 18.4997L22.4785 18.9898ZM22.3526 21.5874L21.7706 21.0384L21.7706 21.0384L22.3526 21.5874ZM21.5476 22.3929L20.9944 21.8149L20.9944 21.8149L21.5476 22.3929ZM18.9282 22.5199L19.4228 21.8912L19.4228 21.8911L18.9282 22.5199ZM18.8522 22.4581L19.3605 21.8403L19.3605 21.8403L18.8522 22.4581ZM18.7427 22.368L18.2344 22.9858L18.2344 22.9858L18.7427 22.368ZM15.5076 23.708L16.3038 23.7854L15.5076 23.708ZM10.5139 23.9287L11.3101 23.8513V23.8513L10.5139 23.9287ZM10.4973 23.7583L9.70109 23.8357V23.8357L10.4973 23.7583ZM7.80937 22.6449L8.31766 23.2627L8.31766 23.2627L7.80937 22.6449ZM5.59647 22.5376L5.03078 23.1033H5.03078L5.59647 22.5376ZM4.67598 21.6171L5.24167 21.0514L5.24166 21.0514L4.67598 21.6171ZM4.6071 21.5476L4.02914 22.1007L4.02915 22.1007L4.6071 21.5476ZM4.48007 18.9282L3.85133 18.4335L3.8513 18.4335L4.48007 18.9282ZM4.54188 18.8523L5.15967 19.3606L5.16277 19.3567L4.54188 18.8523ZM4.5419 18.8522L3.92412 18.3439L3.92101 18.3478L4.5419 18.8522ZM4.63202 18.7427L5.24979 19.251L5.24979 19.251L4.63202 18.7427ZM3.29197 15.5076L3.36938 14.7113H3.36938L3.29197 15.5076ZM3.04206 10.5167L2.96465 9.7205H2.96465L3.04206 10.5167ZM3.16256 10.505L3.23997 11.3013H3.23997L3.16256 10.505ZM4.27215 7.82624L3.65438 8.33454L4.27215 7.82624ZM4.3791 5.6209L4.94479 6.18659L4.94479 6.18658L4.3791 5.6209ZM5.55811 4.44189L4.99242 3.87621L4.99242 3.87621L5.55811 4.44189ZM7.78968 4.33367L7.28139 4.95144L7.78968 4.33367ZM10.5003 3.21088L11.2966 3.28829L11.2966 3.28829L10.5003 3.21088ZM10.5141 3.06971L9.71781 2.99229L9.71781 2.9923L10.5141 3.06971ZM16.3036 3.21298C16.165 1.78741 14.9668 0.7 13.5345 0.7V2.3C14.1431 2.3 14.6523 2.76206 14.7112 3.36781L16.3036 3.21298ZM18.2314 4.0115C17.5008 4.61263 16.3952 4.15467 16.3036 3.21298L14.7112 3.36781C14.9266 5.58398 17.5286 6.66175 19.248 5.24703L18.2314 4.0115ZM18.3636 3.90271L18.2314 4.01149L19.248 5.24704L19.3802 5.13825L18.3636 3.90271ZM18.4743 3.81302C18.4422 3.83795 18.408 3.86624 18.3636 3.90272L19.3802 5.13825C19.4324 5.09534 19.4464 5.08393 19.457 5.07562L18.4743 3.81302ZM22.1197 3.98981C21.1152 3.03822 19.5662 2.9631 18.4743 3.81302L19.4571 5.07561C19.925 4.71136 20.5889 4.74356 21.0194 5.15138L22.1197 3.98981ZM22.2212 4.08979C22.1806 4.04919 22.1492 4.01772 22.1197 3.98981L21.0194 5.15138C21.0292 5.1607 21.042 5.1734 21.0898 5.22116L22.2212 4.08979ZM23.1238 4.99242L22.2212 4.08979L21.0898 5.22116L21.9924 6.12379L23.1238 4.99242ZM23.2841 8.29798C24.0895 7.31912 24.0201 5.88875 23.1238 4.99242L21.9924 6.12379C22.3063 6.43769 22.3306 6.9386 22.0486 7.28139L23.2841 8.29798ZM23.8665 9.70409C23.1797 9.63731 22.8456 8.83088 23.2841 8.29798L22.0486 7.28139C20.7965 8.80311 21.7504 11.1059 23.7117 11.2966L23.8665 9.70409ZM24.0077 9.71781L23.8665 9.70409L23.7117 11.2966L23.8529 11.3103L24.0077 9.71781ZM26.3 12.2438C26.3 10.9373 25.3081 9.84424 24.0077 9.71781L23.8529 11.3103C24.3334 11.357 24.7 11.761 24.7 12.2438H26.3ZM26.3 13.5051V12.2438H24.7V13.5051H26.3ZM26.3 13.53L26.3 13.5061L24.7 13.5042L24.7 13.5281L26.3 13.53ZM23.7859 16.3037C25.2084 16.1577 26.2923 14.9633 26.3 13.5334L24.7 13.5248C24.6967 14.1376 24.2322 14.6495 23.6225 14.7121L23.7859 16.3037ZM23.7587 16.3064L23.7826 16.304L23.6259 14.7117L23.602 14.7141L23.7587 16.3064ZM23.7161 16.3106L23.7589 16.3064L23.6018 14.7141L23.559 14.7183L23.7161 16.3106ZM22.9141 18.2586C22.3151 17.5189 22.7746 16.4096 23.7212 16.3101L23.5539 14.7189C21.3451 14.9512 20.273 17.5394 21.6706 19.2655L22.9141 18.2586ZM22.9382 18.2879L22.9109 18.2546L21.6739 19.2694L21.7012 19.3027L22.9382 18.2879ZM23.0144 18.3805L22.9374 18.287L21.7019 19.3036L21.7788 19.3971L23.0144 18.3805ZM23.1108 18.4997C23.0841 18.4651 23.0536 18.4282 23.0144 18.3805L21.7788 19.3971C21.825 19.4533 21.8373 19.4683 21.8462 19.4798L23.1108 18.4997ZM22.9345 22.1363C23.881 21.133 23.9558 19.5899 23.1109 18.4997L21.8462 19.4798C22.2084 19.9471 22.1763 20.6084 21.7706 21.0384L22.9345 22.1363ZM22.8269 22.2456C22.8706 22.2019 22.9045 22.1681 22.9345 22.1363L21.7706 21.0384C21.7606 21.049 21.747 21.0628 21.6955 21.1142L22.8269 22.2456ZM22.1828 22.8897L22.8269 22.2456L21.6955 21.1142L21.0514 21.7583L22.1828 22.8897ZM22.1007 22.9709C22.1245 22.9481 22.1499 22.9226 22.1828 22.8897L21.0514 21.7583C21.0127 21.797 21.0023 21.8073 20.9944 21.8149L22.1007 22.9709ZM18.4335 23.1487C19.5296 24.0109 21.0932 23.9351 22.1007 22.9709L20.9944 21.8149C20.5626 22.2282 19.8925 22.2607 19.4228 21.8912L18.4335 23.1487ZM18.344 23.0759C18.3799 23.1054 18.4077 23.1284 18.4335 23.1487L19.4228 21.8911C19.4141 21.8844 19.4028 21.8751 19.3605 21.8403L18.344 23.0759ZM18.2344 22.9858L18.344 23.0759L19.3605 21.8403L19.251 21.7502L18.2344 22.9858ZM16.3038 23.7854C16.3955 22.8424 17.5027 22.3837 18.2344 22.9858L19.251 21.7502C17.5305 20.3346 14.9269 21.4131 14.7113 23.6306L16.3038 23.7854ZM13.5329 26.3C14.9661 26.3 16.1651 25.2119 16.3038 23.7854L14.7113 23.6306C14.6523 24.2373 14.1424 24.7 13.5329 24.7V26.3ZM12.2454 26.3H13.5329V24.7H12.2454V26.3ZM9.71766 24.0061C9.84417 25.3074 10.938 26.3 12.2454 26.3V24.7C11.7616 24.7 11.357 24.3328 11.3101 23.8513L9.71766 24.0061ZM9.70109 23.8357L9.71766 24.0061L11.3101 23.8513L11.2936 23.6809L9.70109 23.8357ZM8.31766 23.2627C8.84197 22.8313 9.63539 23.1599 9.70109 23.8357L11.2936 23.6809C11.104 21.7306 8.8142 20.7822 7.30108 22.0271L8.31766 23.2627ZM5.03078 23.1033C5.92205 23.9945 7.34434 24.0635 8.31766 23.2627L7.30108 22.0271C6.96382 22.3046 6.47098 22.2807 6.16216 21.9719L5.03078 23.1033ZM4.1103 22.1828L5.03078 23.1033L6.16216 21.9719L5.24167 21.0514L4.1103 22.1828ZM4.02915 22.1007C4.05189 22.1245 4.07738 22.1499 4.11031 22.1828L5.24166 21.0514C5.20297 21.0127 5.19265 21.0023 5.18505 20.9944L4.02915 22.1007ZM3.8513 18.4335C2.98906 19.5296 3.06488 21.0932 4.02914 22.1007L5.18506 20.9944C4.7718 20.5626 4.73931 19.8925 5.10884 19.4228L3.8513 18.4335ZM3.9241 18.344C3.89454 18.3799 3.87164 18.4077 3.85133 18.4335L5.10881 19.4228C5.11562 19.4142 5.12489 19.4028 5.15966 19.3606L3.9241 18.344ZM3.92101 18.3478L3.92099 18.3478L5.16277 19.3567L5.16279 19.3567L3.92101 18.3478ZM4.01425 18.2344L3.92413 18.344L5.15967 19.3605L5.24979 19.251L4.01425 18.2344ZM3.21456 16.3038C4.15763 16.3955 4.61627 17.5027 4.01425 18.2344L5.24979 19.251C6.66539 17.5305 5.58694 14.9269 3.36938 14.7113L3.21456 16.3038ZM0.7 13.5329C0.7 14.9661 1.78809 16.1651 3.21456 16.3038L3.36938 14.7113C2.76274 14.6523 2.3 14.1424 2.3 13.5329H0.7ZM0.7 12.216V13.5329H2.3V12.216H0.7ZM2.96465 9.7205C1.67995 9.8454 0.7 10.9252 0.7 12.216H2.3C2.3 11.7489 2.6546 11.3582 3.11947 11.313L2.96465 9.7205ZM3.08515 9.70878L2.96465 9.7205L3.11947 11.313L3.23997 11.3013L3.08515 9.70878ZM3.65438 8.33454C4.08291 8.85536 3.75644 9.64352 3.08515 9.70878L3.23997 11.3013C5.18575 11.1121 6.13203 8.82759 4.88992 7.31795L3.65438 8.33454ZM3.81342 5.05521C2.9242 5.94443 2.85538 7.36345 3.65438 8.33454L4.88992 7.31795C4.61426 6.98293 4.63801 6.49336 4.94479 6.18659L3.81342 5.05521ZM4.99242 3.87621L3.81342 5.05521L4.94479 6.18658L6.12379 5.00758L4.99242 3.87621ZM8.29798 3.7159C7.31912 2.91051 5.88875 2.97988 4.99242 3.87621L6.12379 5.00758C6.43769 4.69368 6.9386 4.66939 7.28139 4.95144L8.29798 3.7159ZM9.70409 3.13347C9.63731 3.82033 8.83088 4.15436 8.29798 3.7159L7.28139 4.95144C8.80311 6.20348 11.1059 5.24963 11.2966 3.28829L9.70409 3.13347ZM9.71781 2.9923L9.70409 3.13347L11.2966 3.28829L11.3103 3.14712L9.71781 2.9923ZM12.2438 0.7C10.9373 0.7 9.84424 1.69191 9.71781 2.99229L11.3103 3.14712C11.357 2.66656 11.761 2.3 12.2438 2.3V0.7ZM13.5345 0.7H12.2438V2.3H13.5345V0.7ZM17.7 13.5C17.7 15.8196 15.8196 17.7 13.5 17.7V19.3C16.7033 19.3 19.3 16.7033 19.3 13.5H17.7ZM13.5 9.3C15.8196 9.3 17.7 11.1804 17.7 13.5H19.3C19.3 10.2967 16.7033 7.7 13.5 7.7V9.3ZM9.3 13.5C9.3 11.1804 11.1804 9.3 13.5 9.3V7.7C10.2967 7.7 7.7 10.2967 7.7 13.5H9.3ZM13.5 17.7C11.1804 17.7 9.3 15.8196 9.3 13.5H7.7C7.7 16.7033 10.2967 19.3 13.5 19.3V17.7Z" fill="#A4A4A4"/>
</g>
</svg>
