<svg width="5" height="27" viewBox="0 0 5 27" fill="none" xmlns="http://www.w3.org/2000/svg">
<g id="...">
<path d="M1.31122e-06 2.5432C1.34392e-06 1.84618 0.245372 1.24807 0.736113 0.748853C1.22685 0.249638 1.81482 3.03878e-05 2.5 3.04157e-05C3.18519 3.04437e-05 3.77315 0.249638 4.26389 0.748853C4.75463 1.24807 5 1.84618 5 2.5432C5 3.24022 4.75463 3.83834 4.26389 4.33755C3.77315 4.83677 3.18519 5.08637 2.5 5.08637C2.0463 5.08637 1.62963 4.96863 1.25 4.73315C0.870371 4.5071 0.564816 4.20097 0.333334 3.81479C0.111112 3.43802 1.28913e-06 3.01416 1.31122e-06 2.5432Z" fill="#111827"/>
<path d="M7.97278e-07 13.5C8.29972e-07 12.803 0.245371 12.2049 0.736112 11.7057C1.22685 11.2065 1.81482 10.9569 2.5 10.9569C3.18519 10.9569 3.77315 11.2065 4.26389 11.7057C4.75463 12.2049 5 12.803 5 13.5C5 14.197 4.75463 14.7952 4.26389 15.2944C3.77315 15.7936 3.18518 16.0432 2.5 16.0432C2.0463 16.0432 1.62963 15.9255 1.25 15.69C0.870371 15.4639 0.564815 15.1578 0.333334 14.7716C0.111112 14.3949 7.75187e-07 13.971 7.97278e-07 13.5Z" fill="#111827"/>
<path d="M2.83334e-07 24.4569C3.16029e-07 23.7598 0.245371 23.1617 0.736112 22.6625C1.22685 22.1633 1.81481 21.9137 2.5 21.9137C3.18518 21.9137 3.77315 22.1633 4.26389 22.6625C4.75463 23.1617 5 23.7598 5 24.4569C5 25.1539 4.75463 25.752 4.26389 26.2512C3.77315 26.7504 3.18518 27 2.5 27C2.0463 27 1.62963 26.8823 1.25 26.6468C0.87037 26.4208 0.564815 26.1146 0.333333 25.7284C0.111111 25.3517 2.61243e-07 24.9278 2.83334e-07 24.4569Z" fill="#111827"/>
</g>
</svg>
